<?xml version="1.0" ?><svg viewBox="0 0 64 64" xmlns="http://www.w3.org/2000/svg" xmlns:xlink="http://www.w3.org/1999/xlink"><defs><style>.cls-1{fill:url(#linear-gradient);}.cls-2{fill:#fff;}.cls-3{fill:#dc1c21;}</style><linearGradient gradientTransform="translate(64 64) rotate(-180)" gradientUnits="userSpaceOnUse" id="linear-gradient" x1="32" x2="32" y1="0.4" y2="63.7"><stop offset="0" stop-color="#f5362e"/><stop offset="1" stop-color="#cc161c"/></linearGradient></defs><title/><g data-name="28-yelp" id="_28-yelp"><rect class="cls-1" height="64" rx="11.2" ry="11.2" transform="translate(64 64) rotate(180)" width="64"/><path class="cls-2" d="M59.62,31.63a3.17,3.17,0,0,0,1.14-1.29,3.3,3.3,0,0,0-.09-3.07L58.83,24a3.21,3.21,0,0,0-2.78-1.63,3.15,3.15,0,0,0-2.31,1l-.12-3.2a3.31,3.31,0,0,0-2.16-3,7,7,0,0,0-2.33-.41,7.93,7.93,0,0,0-5.41,2.36,3.36,3.36,0,0,0-.35,4.45l1.48,2-.41,0a3.29,3.29,0,0,0-3.1,2.08A5.18,5.18,0,0,0,38,26.4a5.11,5.11,0,0,0-2.17.5A3.53,3.53,0,0,0,34,26.4,3.6,3.6,0,0,0,32,27V26.8a3.6,3.6,0,1,0-7.2,0V29a6.37,6.37,0,0,0-4.4-1.81,6.26,6.26,0,0,0-3.32,1,3.58,3.58,0,0,0-6.47.62l-.15.4-.5-.92a3.6,3.6,0,1,0-6.32,3.46L6.9,37.67a3.6,3.6,0,0,0,.7,7.13H8.87a5.21,5.21,0,0,0,4.9-3.45l.89-2.49A6.68,6.68,0,0,0,20.4,42.4a6.43,6.43,0,0,0,4.72-2.12,3.59,3.59,0,0,0,5.28,1.51V42a3.6,3.6,0,0,0,7.2,0v-.42l.4,0c3.08,0,5.54-2.79,5.94-6.53H44a3.63,3.63,0,0,0,.73-.08l.32-.07L45,35a3.44,3.44,0,0,0,.42,4.73,8,8,0,0,0,4.47,1.81l.36,0a3.36,3.36,0,0,0,2.43-1.06,3.41,3.41,0,0,0,.75-1.32,3.36,3.36,0,0,0,4.91-.27l2-2.45a3.3,3.3,0,0,0,.63-3A3.35,3.35,0,0,0,59.62,31.63Z"/><path d="M14.4,28.87a1.2,1.2,0,0,0-1.53.73L10.93,35,7.85,29.42a1.2,1.2,0,1,0-2.1,1.16l4.1,7.47-.6,1.68a.41.41,0,0,1-.38.27H7.6a1.2,1.2,0,1,0,0,2.4H8.87a2.82,2.82,0,0,0,2.64-1.86L15.13,30.4A1.2,1.2,0,0,0,14.4,28.87Z"/><path d="M20.4,29.6C18,29.6,16,31.93,16,34.8S18,40,20.4,40a4.13,4.13,0,0,0,3.27-1.71,1.2,1.2,0,0,0-1.91-1.46,1.78,1.78,0,0,1-1.36.77c-1,0-1.84-1.06-2-2.4l5.12,0a1.19,1.19,0,0,0,.91-.42,1.23,1.23,0,0,0,.27-1A4.68,4.68,0,0,0,20.4,29.6Zm-2.18,4s.18-2.4,2.18-2.4,2.18,2.38,2.18,2.38Z"/><path d="M28.4,25.6a1.2,1.2,0,0,0-1.2,1.2v12a1.2,1.2,0,0,0,2.4,0v-12A1.2,1.2,0,0,0,28.4,25.6Z"/><path d="M38,28.8a3.35,3.35,0,0,0-2.8,1.93V30a1.2,1.2,0,0,0-2.4,0V42a1.2,1.2,0,0,0,2.4,0V37.27A3.35,3.35,0,0,0,38,39.2c2,0,3.6-2.33,3.6-5.2S40,28.8,38,28.8Zm.12,8.4C37,37.2,36,35.77,36,34s1-3.2,2.12-3.2,2.11,1.43,2.11,3.2S39.28,37.2,38.12,37.2Z"/><path class="cls-3" d="M50.65,19.47a5.12,5.12,0,0,0-5.27,1.42,1,1,0,0,0-.09,1.28l4.8,6.42c.5.66,1.44.24,1.41-.63l-.28-7.65A.92.92,0,0,0,50.65,19.47Z"/><path class="cls-3" d="M53.72,30.39,58,29.74a.86.86,0,0,0,.58-1.28l-1.83-3.24a.79.79,0,0,0-1.37,0l-2.44,3.88A.85.85,0,0,0,53.72,30.39Z"/><path class="cls-3" d="M58.08,33.53l-4-1.47a.92.92,0,0,0-1.16,1.25l2,3.91a.94.94,0,0,0,1.56.16l2-2.44A.89.89,0,0,0,58.08,33.53Z"/><path class="cls-3" d="M49.48,33.17l-2.6,3.31A1.07,1.07,0,0,0,47,37.93a5.65,5.65,0,0,0,3.15,1.23,1,1,0,0,0,1.06-1v-4.3A1,1,0,0,0,49.48,33.17Z"/><path class="cls-3" d="M49,30.22,45,28.1a1,1,0,0,0-1.41.5L43,31.69c-.11.59.56,1.11,1.24,1l4.6-1A.76.76,0,0,0,49,30.22Z"/></g></svg>